<svg xmlns="http://www.w3.org/2000/svg" xmlns:xlink="http://www.w3.org/1999/xlink" viewBox="0 0 683.68 217.57"><defs><style>.cls-1{fill:#4c4c4c;}.cls-2{fill:url(#linear-gradient);}.cls-3{fill:#fff;}</style><linearGradient id="linear-gradient" x1="194.83" y1="68.81" x2="68.72" y2="194.93" gradientUnits="userSpaceOnUse"><stop offset="0" stop-color="#4845a2"/><stop offset="0.19" stop-color="#8744a1"/><stop offset="0.3" stop-color="#a844a1"/><stop offset="0.35" stop-color="#ab429a"/><stop offset="0.42" stop-color="#b43c88"/><stop offset="0.51" stop-color="#c33269"/><stop offset="0.6" stop-color="#d7243f"/><stop offset="0.6" stop-color="#d7243e"/><stop offset="0.88" stop-color="#f9a326"/><stop offset="1" stop-color="#f9dd26"/></linearGradient></defs><g id="圖層_1" data-name="圖層 1"><path class="cls-1" d="M598.94,138.11c-4.5,3.61-13.28,5.86-18.46,6.76,2.25,5.4,7.76,23.66,7.21,23.64,3.07.14,93.93-3.94,104.1-4.4-10.87-6.57-7.89-21.52-7.89-21.52l-60.41,2c6.07-7,12.6-15.08,18.68-22.73H711.6V99.84H662.43V84.31H696.7l8.73-21.84h-43V43.78H635.64V62.47H593.76V84.31h41.88V99.84H582.73v22.07h30.62C607.73,128.66,601.88,135.41,598.94,138.11Z" transform="translate(-44.96 -43.78)"/><path class="cls-1" d="M710.16,226.6V174.14H587.23V226.6H570.35V250H722.09V226.6Zm-88.47,0H608.85V195.76h12.84Zm32.63,0h-12.6V195.76h12.6Zm32.88,0H674.37V195.76H687.2Z" transform="translate(-44.96 -43.78)"/><polygon class="cls-1" points="531.92 19.59 473.61 19.59 473.61 172 495.67 172 495.67 149.04 495.67 125.85 495.67 124.48 495.67 42.77 509.63 42.77 509.63 125.85 495.67 149.04 531.92 149.04 531.92 19.59"/><path class="cls-1" d="M284.42,239.88c5.85,3.38,16.43,10.35,21.16,14.64,11.71-11.72,23.19-30.85,30.17-49.77l-25.21-5.85C305.35,214.21,295.67,229.75,284.42,239.88Z" transform="translate(-44.96 -43.78)"/><path class="cls-1" d="M448.09,116.5h32.22L491.4,92.19H448.09V44H421.75V152.07H387.53v102h62.05L462.67,239v15.06h25.27v-102H448.09Zm14,59.21v53.35H412.3V175.71Z" transform="translate(-44.96 -43.78)"/><path class="cls-1" d="M298.15,197.1H375.6V52.56H298.15ZM322.24,73.73h27.92V94.21H322.24Zm0,40.3h27.92V135H322.24Zm0,40.75h27.92v20.93H322.24Z" transform="translate(-44.96 -43.78)"/><path class="cls-1" d="M728.64,146.9A19.64,19.64,0,1,1,709,127.26,19.63,19.63,0,0,1,728.64,146.9Z" transform="translate(-44.96 -43.78)"/><path class="cls-1" d="M373.71,228.7a19.65,19.65,0,1,1-19.65-19.64A19.64,19.64,0,0,1,373.71,228.7Z" transform="translate(-44.96 -43.78)"/></g><g id="圖層_3" data-name="圖層 3"><path class="cls-2" d="M83.62,143.6H52l-7,25.52H76.24L65.5,206.25h31l10.75-37.13h36.32l-10.75,37.13h31l10.75-37.13h31.24l7-25.52H182L192.56,107h32.18l7-25.51h-31.8l10.9-37.69h-31l-10.9,37.69H132.61l10.9-37.69h-31L101.6,81.47H70.87l-7,25.51H94.6Z" transform="translate(-44.96 -43.78)"/><path class="cls-3" d="M179.59,130.67l-9.46,32.52H145.88L155.57,129c1.07-3.59,3.86-15.49-7.81-16.26h-27l-14.67,50.42h-23l30.5-103.73h20.82L124.45,93h28.13s13.93.33,23.67,10.39C183.92,111.32,179.59,130.67,179.59,130.67Z" transform="translate(-44.96 -43.78)"/><path class="cls-1" d="M65.38,253.21h-4.9V237.59a.92.92,0,0,0-.95-1h-7.7v16.58H47V225.57h4.87v8.59l2.46-2.43h6.19a4.87,4.87,0,0,1,4.9,4.9Z" transform="translate(-44.96 -43.78)"/><path class="cls-1" d="M88.41,253.21h-4.9v-2.43l-2.43,2.43H73.75a4.86,4.86,0,0,1-4.87-4.87v-3.42a4.9,4.9,0,0,1,4.87-4.9h6.52l1.44,4.9h-7a1,1,0,0,0-1,1v1.47a1,1,0,0,0,1,1h8.77V237.59a.92.92,0,0,0-1-1H70.84l1.47-4.9h11.2a4.87,4.87,0,0,1,4.9,4.9Z" transform="translate(-44.96 -43.78)"/><path class="cls-1" d="M111.44,248.34a4.86,4.86,0,0,1-4.9,4.87H91.92l1.47-4.87h12.2a1,1,0,0,0,1-1v-1.47a1,1,0,0,0-1-1H96.78a4.89,4.89,0,0,1-4.86-4.9v-3.39a4.86,4.86,0,0,1,4.86-4.9H110l-1.47,4.9H97.77a1,1,0,0,0-1,1v1.47a1,1,0,0,0,1,1h8.77a4.9,4.9,0,0,1,4.9,4.9Z" transform="translate(-44.96 -43.78)"/><path class="cls-1" d="M133.18,253.21h-4.9V237.59a.92.92,0,0,0-1-1h-7.71v16.58h-4.86V225.57h4.86v8.59l2.47-2.43h6.19a4.87,4.87,0,0,1,4.9,4.9Z" transform="translate(-44.96 -43.78)"/><path class="cls-1" d="M148.44,248.34v4.87h-6.89a4.86,4.86,0,0,1-4.87-4.87V226.86h4.87v4.87h6.89l-1.47,4.9h-5.42v10.72a1,1,0,0,0,1,1Z" transform="translate(-44.96 -43.78)"/><path class="cls-1" d="M170.92,253.21H166v-2.43l-2.43,2.43h-7.33a4.85,4.85,0,0,1-4.86-4.87v-3.42a4.89,4.89,0,0,1,4.86-4.9h6.52l1.44,4.9h-7a1,1,0,0,0-1,1v1.47a1,1,0,0,0,1,1H166V237.59a.92.92,0,0,0-.95-1H153.34l1.47-4.9H166a4.88,4.88,0,0,1,4.91,4.9Z" transform="translate(-44.96 -43.78)"/><path class="cls-1" d="M194,249.49a14,14,0,0,1-2.47,8l-.08.11-.07.11-3.09,3.68-3.47-3.46,2.77-3.28a9.29,9.29,0,0,0,1.5-5.12V236.63h-8.76a1,1,0,0,0-1,1v9.76a1,1,0,0,0,1,1h7.29l-1.47,4.87h-6.82a4.85,4.85,0,0,1-4.86-4.87V236.63a4.86,4.86,0,0,1,4.86-4.9h7.33l2.43,2.43v-2.43H194Z" transform="translate(-44.96 -43.78)"/><path class="cls-1" d="M212.08,237.59a.93.93,0,0,0-1-1h-7.81a1,1,0,0,0-1,1v9.76a1,1,0,0,0,1,1H216l-1.43,4.87H202.31a4.85,4.85,0,0,1-4.86-4.87V236.63a4.86,4.86,0,0,1,4.86-4.9h9.77a4.88,4.88,0,0,1,4.9,4.9v8.29h-12.2l1.47-4.9h5.83Z" transform="translate(-44.96 -43.78)"/><path class="cls-1" d="M230.65,236.63h-4.31a1,1,0,0,0-1,1v15.62h-4.86V231.73h4.86v2.43l2.47-2.43h4.27Z" transform="translate(-44.96 -43.78)"/></g></svg>